<?xml version="1.0" encoding="utf-8"?>
<!-- Generator: Adobe Illustrator 16.0.0, SVG Export Plug-In . SVG Version: 6.00 Build 0)  -->
<!DOCTYPE svg PUBLIC "-//W3C//DTD SVG 1.1//EN" "http://www.w3.org/Graphics/SVG/1.1/DTD/svg11.dtd">
<svg version="1.1" id="Layer_1" xmlns="http://www.w3.org/2000/svg" xmlns:xlink="http://www.w3.org/1999/xlink" x="0px" y="0px"
	 width="259.621px" height="76.224px" viewBox="0 0 259.621 76.224" enable-background="new 0 0 259.621 76.224"
	 xml:space="preserve">
<g>
	<defs>
		<rect id="SVGID_1_" y="0" width="259.621" height="76.223"/>
	</defs>
	<clipPath id="SVGID_2_">
		<use xlink:href="#SVGID_1_"  overflow="visible"/>
	</clipPath>
	<path clip-path="url(#SVGID_2_)" fill="#FFFFFF" d="M257.243,26.598c-1.584-2.012-3.813-3.548-6.688-4.607
		c-0.804-0.297-1.574-0.572-2.314-0.826c-0.74-0.255-1.469-0.498-2.187-0.731c-0.72-0.233-1.448-0.477-2.188-0.731
		c-0.739-0.254-1.532-0.551-2.376-0.89c-2.156-0.805-3.909-1.885-5.263-3.242c-1.353-1.355-2.029-3.155-2.029-5.401
		c0-1.44,0.243-2.723,0.732-3.846c0.486-1.122,1.163-2.065,2.032-2.828c0.869-0.763,1.886-1.335,3.052-1.716
		c1.165-0.381,2.404-0.572,3.718-0.572c1.652,0,3.156,0.34,4.513,1.017c1.355,0.678,2.563,1.557,3.622,2.638
		c1.059,1.08,1.991,2.309,2.797,3.686c0.804,1.377,1.461,2.765,1.97,4.162h0.699V0.954h-0.699c-0.34,0.508-0.71,1.017-1.111,1.525
		c-0.403,0.508-0.667,0.763-0.795,0.763c-0.043,0-0.286-0.159-0.731-0.477c-0.444-0.317-1.103-0.667-1.971-1.048
		c-0.868-0.382-1.98-0.732-3.335-1.049c-1.357-0.318-2.988-0.477-4.895-0.477c-2.033,0-3.973,0.266-5.814,0.794
		c-1.845,0.531-3.471,1.346-4.881,2.448s-2.533,2.478-3.368,4.131c-0.228,0.449-0.417,0.926-0.583,1.422l-1.433-8.731
		c-0.976,0.297-1.918,0.54-2.828,0.73c-0.911,0.191-2.066,0.309-3.464,0.35c-1.61,0-3.051,0.011-4.321,0.032
		c-1.272,0.022-2.501,0.043-3.687,0.064c-1.187,0.022-2.416,0.031-3.686,0.031h-4.196h-4.258h-3.622
		c-1.188,0-2.415-0.009-3.687-0.031c-1.271-0.021-2.712-0.053-4.321-0.096c-1.568-0.041-2.765-0.127-3.591-0.254
		c-0.825-0.127-1.728-0.296-2.701-0.509l-1.687,10.688l-3.968-10.369h-35.337v0.635c1.145,0.17,2.076,0.35,2.797,0.54
		c0.72,0.191,1.398,0.626,2.033,1.303c0.254,0.255,0.454,0.668,0.604,1.239c0.147,0.572,0.254,1.219,0.317,1.938
		c0.063,0.722,0.105,1.484,0.127,2.289s0.031,1.588,0.031,2.351V23.58v3.686c0,1.271-0.01,2.51-0.031,3.717
		c-0.021,1.208-0.043,2.32-0.063,3.337c-0.022,1.017-0.031,1.823-0.031,2.415c0,0.679-0.022,1.367-0.064,2.066
		s-0.117,1.366-0.223,2.002s-0.222,1.198-0.349,1.684c-0.127,0.488-0.297,0.859-0.509,1.113c-0.595,0.677-1.346,1.207-2.256,1.589
		c-0.422,0.176-0.863,0.324-1.317,0.456c-0.047,0.012-0.097,0.033-0.143,0.045c-0.072,0.02-0.151,0.029-0.224,0.048
		c-1.659,0.342-2.958-0.066-3.401-0.242c-0.14-0.058-0.281-0.117-0.413-0.18c-0.722-0.339-1.325-0.73-1.811-1.176
		c-0.488-0.446-0.881-0.879-1.177-1.303c-0.298-0.424-0.487-0.722-0.572-0.892c-0.509-1.1-0.965-2.086-1.366-2.955
		c-0.403-0.867-0.838-1.958-1.303-3.272c-1.018-2.669-2.034-5.37-3.051-8.103c-1.017-2.733-2.066-5.561-3.146-8.485
		c-1.08-2.923-2.214-5.963-3.4-9.12c-1.186-3.155-2.437-6.492-3.75-10.009h-0.508c-0.17,0.296-0.413,0.678-0.731,1.144
		c-0.317,0.466-0.71,0.953-1.176,1.462c-0.466,0.508-1.006,0.996-1.62,1.461c-0.615,0.467-1.303,0.869-2.066,1.208l0.636,1.398
		c-1.017,2.373-2.097,4.925-3.242,7.658c-1.144,2.733-2.298,5.445-3.464,8.135c-1.166,2.692-2.298,5.307-3.4,7.849
		c-1.101,2.543-2.097,4.81-2.986,6.801c-0.976,2.16-1.802,3.792-2.48,4.894c-0.677,1.101-1.165,1.801-1.461,2.096
		c-0.101,0.136-0.418,0.368-0.932,0.689c-1.119,0.605-2.146,0.457-2.763,0.258c-0.655-0.287-1.284-0.613-1.863-1.01
		c-1.483-1.018-3.009-2.626-4.576-4.83c-1.017-1.44-2.171-3.092-3.464-4.958c-1.293-1.864-2.49-3.601-3.59-5.212
		c-0.636-0.89-1.294-1.694-1.971-2.415c-0.678-0.72-1.377-1.271-2.097-1.652v-0.191c1.398-0.466,2.733-1.037,4.004-1.716
		c1.271-0.677,2.384-1.493,3.337-2.447c0.953-0.953,1.716-2.055,2.287-3.305c0.573-1.249,0.859-2.658,0.859-4.226
		c0-2.542-0.572-4.65-1.717-6.323c-1.143-1.674-2.648-2.997-4.512-3.973c-1.822-0.974-3.835-1.546-6.038-1.716
		c-2.203-0.169-4.725-0.254-7.562-0.254h-4.45c-1.821,0-3.644,0.01-5.465,0.031c-1.822,0.022-3.454,0.033-4.894,0.033h-2.605v0.635
		c1.143,0.17,2.107,0.371,2.891,0.604c0.783,0.233,1.494,0.689,2.129,1.366c0.254,0.255,0.455,0.668,0.604,1.239
		c0.148,0.572,0.255,1.208,0.318,1.907c0.063,0.699,0.105,1.441,0.127,2.224c0.021,0.785,0.031,1.557,0.031,2.32V23.58v3.686
		c0,1.271-0.01,2.51-0.031,3.717c-0.022,1.208-0.043,2.32-0.064,3.337c-0.021,1.017-0.032,1.823-0.032,2.415
		c0,0.679-0.021,1.378-0.063,2.099c-0.043,0.721-0.095,1.397-0.159,2.033s-0.159,1.207-0.286,1.717
		c-0.127,0.508-0.297,0.89-0.508,1.144c-0.552,0.678-1.314,1.186-2.288,1.525c-0.353,0.123-0.744,0.229-1.143,0.331
		c-1.804,0.402-3.352,0.314-4.077,0.232c-0.525-0.07-1.026-0.151-1.457-0.247c-0.953-0.212-1.706-0.422-2.256-0.635
		c-0.127-0.041-0.381-0.211-0.763-0.508c-0.381-0.296-0.826-0.646-1.335-1.049c-0.507-0.402-1.038-0.857-1.588-1.366
		c-0.551-0.509-1.039-1.019-1.462-1.526c-1.779-1.991-3.633-4.067-5.562-6.228c-1.927-2.161-3.738-4.195-5.433-6.102
		c-1.695-1.906-3.157-3.569-4.385-4.988c-1.23-1.419-2.014-2.341-2.351-2.765c0.719-0.763,1.514-1.578,2.383-2.447
		c0.868-0.868,1.757-1.769,2.668-2.701c0.911-0.931,1.833-1.864,2.766-2.796c0.931-0.932,1.843-1.801,2.733-2.606
		c2.287-2.119,4.533-3.982,6.737-5.593c2.202-1.61,4.385-2.521,6.546-2.733V0.891H26.82v0.635c1.102,0.17,2.076,0.53,2.925,1.081
		c0.846,0.55,1.271,1.44,1.271,2.669c0,0.721-0.286,1.525-0.858,2.415c-0.573,0.89-1.219,1.758-1.94,2.605
		c-1.016,1.103-2.224,2.395-3.622,3.877c-1.398,1.484-2.807,2.924-4.226,4.322c-1.421,1.398-2.776,2.659-4.068,3.781
		c-1.292,1.124-2.32,1.918-3.082,2.384v-5.847v-4.004c0-1.101,0.01-2.076,0.032-2.924c0.021-0.847,0.052-1.757,0.095-2.733
		c0.042-1.779,0.264-3.155,0.668-4.13c0.402-0.975,0.899-1.706,1.493-2.193c0.593-0.487,1.271-0.805,2.033-0.953
		c0.763-0.149,1.547-0.265,2.353-0.35V0.891H0.191v0.635c1.101,0.127,2.076,0.361,2.923,0.699c0.848,0.34,1.567,0.869,2.161,1.589
		c0.467,0.594,0.752,1.568,0.858,2.923c0.106,1.357,0.159,2.84,0.159,4.449V23.58v3.686v3.75c0,1.186-0.01,2.287-0.032,3.304
		c-0.021,1.017-0.031,1.823-0.031,2.415c0,0.679-0.011,1.389-0.032,2.129c-0.022,0.743-0.064,1.442-0.127,2.099
		c-0.064,0.656-0.158,1.238-0.286,1.747c-0.127,0.509-0.297,0.891-0.509,1.145c-0.508,0.593-1.25,1.059-2.224,1.398
		C2.076,45.592,1.059,45.846,0,46.015v0.635h20.401v-0.635c-0.423-0.042-0.92-0.116-1.493-0.223
		c-0.572-0.105-1.155-0.255-1.747-0.445c-0.595-0.191-1.145-0.435-1.653-0.731C15,44.319,14.597,43.96,14.3,43.535
		c-0.424-0.551-0.698-1.354-0.826-2.416c-0.127-1.058-0.212-2.201-0.254-3.431c-0.043-1.398-0.064-3.071-0.064-5.021v-6.292
		c0.127-0.339,0.244-0.582,0.35-0.731c0.105-0.148,0.328-0.223,0.667-0.223c0.296,0,0.645,0.15,1.049,0.446
		c0.402,0.297,1.154,1.059,2.256,2.287c2.627,2.883,5.158,5.731,7.594,8.549c2.437,2.819,5.011,5.793,7.723,8.929
		c0.254,0.297,0.486,0.519,0.699,0.668c0.212,0.147,0.402,0.265,0.572,0.349h14.508H69.12v-0.635
		c-1.738-0.085-3.094-0.413-4.068-0.986c-0.975-0.572-1.632-1.132-1.97-1.683c-0.424-0.637-0.658-1.441-0.7-2.416
		s-0.085-2.139-0.127-3.496c-0.043-1.398-0.063-3.114-0.063-5.147v-7.182c0.593,0.043,1.081,0.063,1.462,0.063
		c0.423,0,1.038,0.086,1.843,0.254c1.101,0.213,2.15,0.743,3.146,1.589c0.995,0.848,1.917,1.759,2.764,2.733
		c1.018,1.187,1.896,2.257,2.638,3.21c0.742,0.953,1.43,1.897,2.066,2.828c0.635,0.932,1.26,1.875,1.874,2.828
		c0.614,0.954,1.324,2.024,2.13,3.209c0.677,0.977,1.175,1.706,1.493,2.194c0.318,0.487,0.582,0.856,0.794,1.112
		c0.212,0.254,0.403,0.477,0.573,0.667c0.169,0.189,0.444,0.477,0.826,0.857h9.18h3.849h9.689v-0.635
		c-0.552-0.085-1.135-0.18-1.748-0.286c-0.615-0.106-1.186-0.276-1.716-0.509c-0.53-0.233-0.964-0.529-1.303-0.891
		c-0.34-0.358-0.509-0.813-0.509-1.365c0-0.933,0.446-2.542,1.335-4.831c0.593-1.483,1.187-2.956,1.779-4.418
		c0.594-1.461,1.208-2.996,1.844-4.607h16.905c0.636,1.652,1.229,3.241,1.78,4.766c0.551,1.526,1.038,2.914,1.462,4.163
		c0.424,1.25,0.752,2.311,0.985,3.178c0.232,0.869,0.349,1.493,0.349,1.875c0,0.594-0.201,1.081-0.603,1.462
		c-0.403,0.381-0.869,0.679-1.398,0.889c-0.531,0.213-1.039,0.361-1.526,0.446c-0.487,0.085-0.794,0.127-0.921,0.127v0.635h18.558
		h20.339v-0.635c-1.738-0.085-3.063-0.286-3.973-0.604c-0.911-0.317-1.558-0.772-1.939-1.366c-0.38-0.594-0.626-1.493-0.73-2.7
		c-0.105-1.208-0.181-2.489-0.223-3.846c0-0.72-0.01-1.578-0.031-2.574c-0.021-0.995-0.032-2.086-0.032-3.273v-3.814V23.77h1.716
		h1.335c0.423,0,0.868,0.011,1.335,0.032c0.466,0.022,1.018,0.054,1.652,0.096c1.228,0.085,2.297,0.307,3.209,0.667
		c0.911,0.36,1.77,0.9,2.574,1.62c0.891,0.806,1.652,1.961,2.288,3.464c0.636,1.504,1.122,2.935,1.462,4.29h0.763V13.475h-0.763
		c-0.17,1.059-0.36,2.044-0.572,2.955c-0.212,0.911-0.572,1.747-1.08,2.51c-0.509,0.763-1.207,1.42-2.098,1.97
		c-0.89,0.552-2.097,0.996-3.622,1.335c-0.595,0.127-1.335,0.222-2.225,0.286c-0.89,0.064-1.748,0.117-2.574,0.159
		s-1.579,0.063-2.257,0.063h-1.144v-1.97v-4.067c0-1.567,0.011-3.231,0.032-4.989s0.053-3.379,0.096-4.863
		c0.041-0.762,0.084-1.407,0.127-1.938c0.042-0.529,0.084-0.963,0.127-1.302c0.042-0.339,0.095-0.637,0.159-0.891
		c0.063-0.254,0.115-0.508,0.158-0.762c0.212,0,0.54-0.01,0.985-0.032c0.444-0.021,0.922-0.042,1.431-0.063
		c0.507-0.021,1.038-0.042,1.588-0.064c0.551-0.021,1.038-0.032,1.462-0.032c2.5,0,4.692,0.117,6.578,0.35
		c1.885,0.233,3.188,0.519,3.908,0.857c1.483,0.722,3.009,1.844,4.576,3.37c1.488,1.448,3.109,3.88,4.757,5.972
		c0.086,0.092,0.281,0.272,0.536,0.272c0.343,0,0.505-0.326,0.505-0.326v0.003c0.228-0.586,0.506-1.183,0.842-1.791
		c0.444-0.804,0.911-1.557,1.397-2.256c0.487-0.699,0.953-1.345,1.399-1.938c0.444-0.593,0.835-1.038,1.175-1.335
		c0.891-0.847,1.853-1.44,2.892-1.78c1.038-0.338,2.361-0.529,3.973-0.571c0.805,0,1.515-0.011,2.129-0.033
		c0.614-0.021,1.197-0.031,1.748-0.031h1.843h2.352V23.58v3.622c0,1.272-0.012,2.501-0.031,3.686
		c-0.021,1.187-0.043,2.267-0.063,3.241c-0.022,0.976-0.032,1.759-0.032,2.353c0,0.678-0.011,1.376-0.032,2.096
		c-0.021,0.722-0.063,1.39-0.127,2.002c-0.063,0.615-0.148,1.166-0.254,1.653c-0.106,0.488-0.265,0.837-0.477,1.048
		c-0.976,1.104-1.971,1.803-2.987,2.099c-1.017,0.297-2.075,0.509-3.178,0.636v0.635h20.656v-0.635
		c-0.934-0.169-1.982-0.423-3.146-0.763c-1.166-0.34-2.065-0.976-2.701-1.906c-0.34-0.467-0.539-1.261-0.604-2.384
		c-0.064-1.122-0.096-2.299-0.096-3.528V23.325v-4.83v-5.91c0-1.992,0.011-3.898,0.031-5.721c0.021-1.821,0.032-3.261,0.032-4.321
		h2.352h1.843c0.594,0,1.186,0.01,1.78,0.031c0.593,0.022,1.292,0.033,2.097,0.033c1.609,0.042,2.934,0.201,3.973,0.476
		c1.037,0.276,2.002,0.837,2.892,1.684c0.339,0.297,0.74,0.753,1.207,1.366c0.467,0.616,0.942,1.283,1.431,2.003
		c0.486,0.721,0.963,1.493,1.43,2.32c0.222,0.392,0.427,0.776,0.619,1.154c-0.066,0.598-0.109,1.215-0.109,1.865
		c0,1.356,0.231,2.637,0.698,3.844c0.465,1.208,1.08,2.31,1.844,3.305c0.762,0.996,1.651,1.865,2.669,2.606
		c1.016,0.742,2.074,1.325,3.177,1.748c0.974,0.381,1.812,0.689,2.511,0.921c0.698,0.234,1.376,0.467,2.033,0.699
		c0.656,0.234,1.367,0.477,2.13,0.731c0.762,0.255,1.652,0.572,2.669,0.954c1.017,0.381,1.97,0.805,2.86,1.271
		c0.889,0.467,1.662,1.028,2.319,1.684c0.656,0.657,1.176,1.43,1.557,2.32c0.382,0.89,0.572,1.928,0.572,3.114
		c0,2.924-0.975,5.243-2.923,6.959c-1.949,1.716-4.49,2.573-7.627,2.573c-1.103,0-2.246-0.189-3.433-0.571
		c-1.187-0.381-2.139-0.764-2.86-1.145c-0.72-0.382-1.472-0.931-2.255-1.651c-0.785-0.722-1.524-1.558-2.225-2.512
		c-0.699-0.953-1.346-1.97-1.938-3.051c-0.594-1.08-1.08-2.192-1.462-3.336h-0.636l0.191,12.647h0.571
		c0.339-0.466,0.72-0.953,1.144-1.461c0.424-0.51,0.699-0.764,0.826-0.764c0.129,0,0.435,0.149,0.922,0.445
		c0.486,0.297,1.217,0.626,2.193,0.985c0.974,0.359,2.202,0.667,3.686,0.922c1.482,0.254,3.263,0.381,5.339,0.381
		c2.415,0,4.64-0.276,6.674-0.826c2.033-0.55,3.781-1.399,5.243-2.542c1.461-1.144,2.605-2.521,3.432-4.131
		c0.826-1.61,1.239-3.432,1.239-5.467C259.621,31.122,258.828,28.61,257.243,26.598 M71.407,23.135
		c-1.398,0.466-2.849,0.773-4.353,0.921c-1.504,0.149-3.125,0.222-4.862,0.222v-2.415v-4.575c0-1.737,0.01-3.538,0.032-5.403
		c0.021-1.864,0.053-3.537,0.095-5.021c0.042-0.974,0.074-1.726,0.096-2.256c0.021-0.529,0.042-0.942,0.063-1.239
		c0.022-0.296,0.053-0.54,0.096-0.731c0.041-0.19,0.084-0.413,0.127-0.667c0.295-0.042,0.719-0.084,1.271-0.127
		c0.55-0.042,1.271-0.064,2.161-0.064c1.228,0,2.404,0.107,3.526,0.318c1.123,0.212,2.193,0.551,3.211,1.017
		c2.033,0.975,3.579,2.288,4.639,3.94c1.058,1.653,1.589,3.538,1.589,5.656c0,1.145-0.149,2.247-0.445,3.306
		c-0.297,1.059-0.753,2.044-1.367,2.955c-0.614,0.911-1.409,1.726-2.383,2.447C73.928,22.14,72.763,22.711,71.407,23.135
		 M106.773,27.773c1.017-2.5,1.958-4.819,2.828-6.959c0.869-2.139,1.662-4.057,2.383-5.752c0.72-1.694,1.324-3.135,1.811-4.321
		c0.487-1.186,0.858-2.055,1.113-2.606c0.381,0.932,0.858,2.129,1.43,3.591c0.572,1.461,1.207,3.072,1.907,4.83
		c0.699,1.759,1.419,3.591,2.16,5.497c0.741,1.907,1.472,3.814,2.193,5.72H106.773z"/>
	<path clip-path="url(#SVGID_2_)" fill="#FFFFFF" d="M63.953,62.337l0.059-0.312c0.015-0.073-0.029-0.118-0.133-0.118
		c-0.192,0-0.664,0.045-2.302,0.045c-0.192,0-0.28,0.089-0.384,0.237l-5.209,7.348c-0.192,0.267-0.325,0.267-0.369-0.116
		l-0.709-7.128c-0.029-0.252-0.059-0.341-0.295-0.341c-2.14,0-2.745-0.045-2.892-0.045c-0.104,0-0.134,0.045-0.162,0.149l-0.06,0.25
		c-0.015,0.089,0.044,0.147,0.177,0.147h0.531c0.428,0,0.768,0.134,0.768,0.413c0,0.134-0.044,0.324-0.104,0.488l-2.42,6.965
		c-0.206,0.59-0.398,1.019-1.195,1.019h-0.295c-0.074,0-0.089,0.028-0.104,0.117l-0.058,0.311c-0.016,0.074,0.014,0.118,0.088,0.118
		c0.162,0,0.605-0.044,1.431-0.044c0.901,0,1.358,0.044,1.52,0.044c0.118,0,0.162-0.044,0.178-0.118l0.044-0.281
		c0.014-0.102,0-0.146-0.104-0.146h-0.516c-0.325,0-0.62-0.191-0.325-1.048l2.421-7.157c0.073-0.207,0.207-0.207,0.235,0.072
		l0.842,8.311c0.029,0.427,0.369,0.427,0.59,0.102l6.051-8.545c0.103-0.146,0.295-0.146,0.237,0.089l-1.978,7.129
		c-0.177,0.635-0.488,1.048-1.225,1.048h-0.384c-0.117,0-0.147,0.06-0.163,0.146l-0.028,0.251c-0.016,0.104,0,0.148,0.132,0.148
		c0.148,0,0.723-0.044,1.919-0.044c1.048,0,1.535,0.044,1.712,0.044c0.147,0,0.162-0.029,0.177-0.118l0.058-0.311
		c0.015-0.072-0.014-0.117-0.102-0.117h-0.458c-0.384,0-0.605-0.28-0.443-0.915l1.904-6.877c0.207-0.724,0.399-1.093,0.752-1.093
		h0.444C63.909,62.454,63.938,62.426,63.953,62.337"/>
	<path clip-path="url(#SVGID_2_)" fill="#FFFFFF" d="M69.29,70.438c0.029-0.044,0.014-0.073-0.03-0.117l-0.132-0.147
		c-0.03-0.044-0.074-0.016-0.119,0.028c-0.103,0.134-0.856,0.9-1.033,0.9c-0.088,0-0.162-0.043-0.162-0.176s0.619-1.963,0.709-2.214
		c0.074-0.236,0.825-2.273,1.106-2.878c0.03-0.06,0.015-0.134-0.044-0.134h-0.517c-0.059,0-0.103,0.045-0.147,0.104l-0.281,0.397
		c-0.147-0.235-0.428-0.502-1.047-0.502c-1.801,0-4.222,3.189-4.222,5.344c0,0.664,0.458,0.943,0.797,0.943
		c1.048,0,2.539-1.579,3.159-2.522l0.074,0.028c-0.561,1.565-0.709,2.023-0.709,2.243c0,0.193,0.134,0.251,0.31,0.251
		C67.844,71.987,69.128,70.732,69.29,70.438 M64.847,71.206c-0.25,0-0.398-0.178-0.398-0.518c0-1.4,1.58-4.515,2.938-4.515
		c0.545,0,0.692,0.471,0.692,0.87c0,0.429-0.147,0.797-0.353,1.225C67.459,68.814,65.586,71.206,64.847,71.206"/>
	<path clip-path="url(#SVGID_2_)" fill="#FFFFFF" d="M76.74,66.425c0-0.177-0.133-0.577-0.62-0.577
		c-0.546,0-1.092,0.384-1.254,0.547c-0.134-0.221-0.517-0.693-1.255-0.693c-1.639,0-2.612,1.713-2.612,2.818
		c0,1.063,0.753,1.595,1.151,1.698c-0.989,0.561-1.254,0.812-1.254,1.091c0,0.281,0.132,0.546,0.56,0.856
		c-0.722,0.31-2.493,1.033-2.493,2.126c0,1.062,1.489,1.932,3.025,1.932c2.892,0,3.143-1.681,3.143-1.918
		c0-0.545-0.236-1.033-1.092-1.593c-0.959-0.635-1.668-1.078-1.919-1.255c-0.103-0.073-0.25-0.237-0.25-0.399
		c0-0.251,0.487-0.59,0.767-0.708c0.044-0.028,0.177-0.059,0.443-0.103c1.697-0.295,2.111-1.948,2.111-2.656
		c0-0.222-0.06-0.68-0.119-0.828c0.059-0.102,0.295-0.206,0.428-0.206c0.089,0,0.206,0.03,0.28,0.104
		c0.088,0.102,0.208,0.221,0.487,0.221C76.637,66.882,76.74,66.587,76.74,66.425 M73.138,73.287c0.37,0.251,0.989,0.648,0.989,1.299
		c0,0.826-0.841,1.18-1.844,1.18c-0.989,0-2.302-0.56-2.302-1.579c0-0.693,0.649-1.255,1.859-1.74L73.138,73.287z M72.637,69.907
		c-0.443,0-0.693-0.34-0.693-1.003c0-1.107,0.753-2.834,1.637-2.834c0.399,0,0.665,0.31,0.665,0.988
		C74.246,68.122,73.714,69.907,72.637,69.907"/>
	<path clip-path="url(#SVGID_2_)" fill="#FFFFFF" d="M82.183,65.701c-0.059,0-0.104,0.044-0.148,0.103l-0.28,0.399
		c-0.148-0.237-0.429-0.502-1.048-0.502c-1.801,0-4.221,3.188-4.221,5.342c0,0.664,0.457,0.945,0.796,0.945
		c1.049,0,2.539-1.579,3.159-2.524l0.074,0.03c-0.561,1.564-0.709,2.022-0.709,2.243c0,0.191,0.134,0.251,0.31,0.251
		c0.842,0,2.126-1.255,2.288-1.55c0.03-0.044,0.014-0.073-0.03-0.117l-0.132-0.149c-0.03-0.044-0.074-0.014-0.118,0.03
		c-0.104,0.132-0.856,0.9-1.034,0.9c-0.088,0-0.162-0.044-0.162-0.178c0-0.133,0.62-1.963,0.709-2.214
		c0.074-0.235,0.826-2.271,1.106-2.878c0.03-0.058,0.015-0.132-0.044-0.132H82.183z M80.84,68.27
		c-0.267,0.546-2.14,2.937-2.878,2.937c-0.251,0-0.398-0.177-0.398-0.517c0-1.401,1.579-4.517,2.937-4.517
		c0.545,0,0.693,0.473,0.693,0.87C81.194,67.472,81.046,67.84,80.84,68.27"/>
	<path clip-path="url(#SVGID_2_)" fill="#FFFFFF" d="M89.78,65.717c0-0.148-0.089-0.354-0.281-0.354
		c-0.413,0-0.664,0.413-0.753,0.678c-0.088,0.28-0.236,0.531-0.546,0.531c-0.325,0-0.796-0.191-1.107-0.339
		c-0.723-0.339-1.091-0.532-1.726-0.532c-1.063,0-1.446,0.753-1.446,1.196c0,0.487,0.354,0.723,0.649,0.723s0.487-0.251,0.487-0.516
		c0-0.237-0.089-0.355-0.192-0.428c-0.133-0.074-0.207-0.147-0.207-0.267c0-0.103,0.118-0.266,0.443-0.266
		c0.442,0,0.929,0.517,1.166,0.679c0.25,0.163,0.664,0.472,1.328,0.428l0.059,0.06l-3.084,3.07c-0.355,0.19-1.181,0.753-1.181,1.357
		c0,0.192,0.133,0.325,0.31,0.325c0.34,0,0.561-0.207,0.634-0.429c0.119-0.368,0.222-0.531,0.591-0.531
		c0.383,0,0.915,0.384,1.122,0.472c0.531,0.251,1.21,0.562,1.859,0.562c1.225,0,1.801-0.944,1.801-1.595
		c0-0.428-0.207-0.722-0.605-0.722c-0.237,0-0.487,0.191-0.487,0.531c0,0.103,0.029,0.236,0.162,0.471
		c0.088,0.177,0.088,0.312,0.088,0.414c0,0.192-0.221,0.428-0.531,0.428c-0.398,0-0.708-0.251-1.328-0.665
		c-0.694-0.457-1.093-0.647-1.535-0.647l-0.044-0.074l3.438-3.41C89.101,66.72,89.78,66.232,89.78,65.717"/>
	<path clip-path="url(#SVGID_2_)" fill="#FFFFFF" d="M93.761,62.277c-0.458,0-0.767,0.34-0.767,0.737
		c0,0.162,0.118,0.708,0.767,0.708c0.605,0,0.782-0.516,0.782-0.737C94.543,62.646,94.278,62.277,93.761,62.277"/>
	<path clip-path="url(#SVGID_2_)" fill="#FFFFFF" d="M93.731,70.173C93.658,70.1,93.6,70.1,93.569,70.144
		c-0.074,0.133-0.871,0.974-1.181,1.033c-0.118-0.029-0.162-0.118-0.162-0.251c0-0.104,0.059-0.429,0.265-0.975l0.856-2.244
		c0.266-0.708,0.502-1.372,0.502-1.638c0-0.251-0.178-0.369-0.354-0.369c-0.945-0.044-2.45,1.728-2.51,1.816
		c-0.044,0.058-0.014,0.089,0.046,0.133l0.117,0.132c0.045,0.044,0.104,0.044,0.163-0.014c0.235-0.237,0.93-1.033,1.18-1.033
		c0.118,0,0.207,0.059,0.207,0.192c0,0.177-0.118,0.472-0.265,0.87l-0.429,1.15c-0.62,1.653-0.871,2.332-0.871,2.671
		c0,0.237,0.104,0.355,0.251,0.369c1.225,0,2.407-1.417,2.494-1.534c0.045-0.073,0.03-0.103-0.029-0.177L93.731,70.173z"/>
	<path clip-path="url(#SVGID_2_)" fill="#FFFFFF" d="M101.611,66.307c0-0.385-0.295-0.605-0.738-0.605
		c-1.314,0-2.922,1.962-3.365,2.67l-0.06-0.029c0.119-0.339,0.753-1.74,0.753-2.198c0-0.191-0.132-0.442-0.471-0.442
		c-1.063,0-2.155,1.225-2.377,1.491c-0.044,0.058-0.03,0.088,0.03,0.146l0.132,0.134c0.06,0.059,0.104,0.059,0.148,0.015
		c0.251-0.281,0.96-0.99,1.24-0.99c0.162,0,0.221,0.104,0.221,0.251c0,0.251-0.413,1.314-0.767,2.229l-1.048,2.729
		c-0.03,0.104,0,0.133,0.162,0.133h0.576c0.147,0,0.177-0.028,0.207-0.089l0.369-0.987c0.384-1.033,0.619-1.417,0.885-1.846
		c0.649-1.048,2.11-2.405,2.686-2.405c0.265,0,0.369,0.133,0.369,0.34c0,0.323-0.531,1.55-0.738,2.125
		c-0.458,1.269-0.989,2.435-0.989,2.716c0,0.221,0.162,0.295,0.355,0.295c0.988,0,2.183-1.048,2.36-1.285
		c0.06-0.073,0.045-0.103-0.014-0.162l-0.103-0.118c-0.045-0.058-0.104-0.072-0.162-0.028c-0.192,0.206-0.842,0.753-1.063,0.753
		c-0.119,0-0.177-0.104-0.177-0.193c0-0.235,0.353-1.062,0.752-2.036C101.272,67.724,101.611,66.955,101.611,66.307"/>
	<path clip-path="url(#SVGID_2_)" fill="#FFFFFF" d="M106.729,65.701c-0.709,0-1.506,0.517-1.979,0.988
		c-1.076,1.063-1.889,2.613-1.889,3.853c0,0.975,0.414,1.445,1.374,1.445c1.136,0,2.021-0.973,2.39-1.489
		c0.058-0.044,0.058-0.089-0.015-0.134l-0.163-0.133c-0.058-0.059-0.103-0.029-0.132,0.016c-0.31,0.502-0.959,1.048-1.683,1.048
		c-0.28,0-0.767-0.267-0.767-0.931c0-0.693,0.118-1.181,0.192-1.357c0.546-0.044,1.343-0.206,2.139-0.605
		c0.827-0.428,1.374-1.194,1.374-1.919C107.57,66.13,107.304,65.701,106.729,65.701 M104.175,68.579
		c0.118-0.531,1.033-2.229,1.977-2.229c0.325,0,0.473,0.267,0.473,0.562C106.625,68.004,104.692,68.624,104.175,68.579"/>
	<path clip-path="url(#SVGID_2_)" fill="#FFFFFF" d="M115.934,66.1h-1.432c0.488-1.652,1.019-3.837,2.392-3.837
		c0.442,0,0.59,0.279,0.605,0.429c0.044,0.324,0.176,0.59,0.649,0.59c0.295,0,0.591-0.222,0.591-0.679
		c0-0.355-0.473-0.871-1.329-0.871c-0.959,0-1.771,0.531-2.184,1.004c-0.782,0.87-1.284,2.095-1.727,3.364h-1.284
		c-0.117,0-0.147,0.044-0.177,0.147l-0.059,0.25c-0.029,0.104,0,0.148,0.074,0.148h1.313l-1.49,5.018
		c-0.797,2.73-1.594,3.97-2.302,3.97c-0.119,0-0.222-0.103-0.252-0.251c-0.044-0.251-0.265-0.664-0.693-0.664
		c-0.383,0-0.635,0.296-0.635,0.636c0,0.472,0.473,0.87,1.063,0.87c1.579,0,2.627-1.639,3.527-3.94
		c0.738-1.889,1.417-4.443,1.8-5.638h1.403c0.118,0,0.147-0.016,0.162-0.104l0.074-0.266C116.052,66.144,116.022,66.1,115.934,66.1"
		/>
	<path clip-path="url(#SVGID_2_)" fill="#FFFFFF" d="M119.591,65.701c-1.963,0-3.365,2.523-3.365,4.384
		c0,1.121,0.709,1.903,1.521,1.903c2.139,0,3.423-2.938,3.423-4.562C121.17,66.425,120.581,65.701,119.591,65.701 M117.525,71.28
		c-0.354,0-0.679-0.281-0.679-0.754c0-0.692,0.354-1.594,0.856-2.391c0.738-1.195,1.52-1.756,2.14-1.756
		c0.487,0,0.753,0.369,0.738,0.827C120.581,68.18,119.06,71.28,117.525,71.28"/>
	<path clip-path="url(#SVGID_2_)" fill="#FFFFFF" d="M126.747,65.701c-0.827,0-2.007,1.814-2.406,2.642l-0.073-0.03
		c0.294-0.987,0.546-1.814,0.53-2.095c0-0.266-0.117-0.517-0.413-0.517c-1.003,0-1.889,1.004-2.199,1.461
		c-0.029,0.045-0.029,0.089,0,0.117l0.148,0.148c0.03,0.03,0.088,0.044,0.118,0c0.207-0.251,0.871-0.915,1.166-0.915
		c0.133,0,0.251,0.088,0.251,0.221c0,0.207-0.457,1.758-0.723,2.583l-0.826,2.392c-0.03,0.073,0.029,0.133,0.132,0.133h0.591
		c0.118,0,0.162,0,0.192-0.104l0.487-1.489c0.221-0.664,0.398-1.004,0.575-1.284c0.591-0.975,1.416-2.243,1.815-2.243
		c0.192,0,0.266,0.058,0.384,0.176c0.118,0.119,0.235,0.148,0.369,0.148c0.28,0,0.575-0.295,0.575-0.68
		C127.439,65.967,127.175,65.701,126.747,65.701"/>
	<path clip-path="url(#SVGID_2_)" fill="#FFFFFF" d="M140.497,62.941c0.34-0.267,0.724-0.486,1.166-0.486h0.458
		c0.104,0,0.118-0.06,0.147-0.149l0.06-0.265c0.015-0.074-0.029-0.133-0.163-0.133c-0.132,0-0.546,0.045-1.432,0.045
		c-0.855,0-1.476-0.045-1.623-0.045c-0.089,0-0.133,0.03-0.162,0.118l-0.059,0.267c-0.016,0.073,0.015,0.146,0.118,0.146h0.177
		c0.398,0,0.459,0.235,0.251,0.502c-0.576,0.724-2.287,2.198-3.602,3.364c-0.398,0.369-0.59,0.413-1.225,0.413l1.107-3.481
		c0.177-0.546,0.457-0.782,0.959-0.782h0.354c0.119,0,0.163-0.016,0.177-0.118l0.045-0.281c0.015-0.089,0-0.147-0.089-0.147
		c-0.177,0-0.619,0.045-1.801,0.045c-0.988,0-1.52-0.045-1.653-0.045c-0.103,0-0.146,0.015-0.176,0.089l-0.104,0.309
		c-0.03,0.09,0.015,0.149,0.133,0.149h0.368c0.562,0,0.694,0.295,0.487,0.944l-2.272,7.055c-0.191,0.604-0.561,0.884-0.944,0.884
		h-0.413c-0.118,0-0.148,0.045-0.162,0.119l-0.06,0.265c-0.015,0.089,0.029,0.162,0.119,0.162c0.103,0,0.545-0.044,1.651-0.044
		c1.004,0,1.653,0.044,1.815,0.044c0.134,0,0.178-0.044,0.192-0.118l0.059-0.279c0.015-0.104-0.029-0.148-0.104-0.148h-0.369
		c-0.472,0-0.707-0.324-0.501-0.973l1.048-3.233c0.295,0,0.384,0.044,0.516,0.207c0.34,0.428,2.273,3.41,2.392,3.586
		c0.134,0.207-0.118,0.413-0.442,0.413h-0.222c-0.089,0-0.118,0.045-0.133,0.148l-0.029,0.235c-0.015,0.118,0.029,0.162,0.132,0.162
		c0.178,0,0.99-0.044,1.86-0.044c0.93,0,1.328,0.044,1.505,0.044c0.133,0,0.163-0.028,0.192-0.146l0.059-0.251
		c0.016-0.073-0.029-0.148-0.132-0.148h-0.429c-0.324,0-0.797-0.353-1.063-0.664c-0.354-0.427-2.524-3.57-2.627-3.777
		C136.262,66.661,139.894,63.414,140.497,62.941"/>
	<path clip-path="url(#SVGID_2_)" fill="#FFFFFF" d="M144.772,65.701c-1.963,0-3.364,2.523-3.364,4.384
		c0,1.121,0.708,1.903,1.521,1.903c2.14,0,3.423-2.938,3.423-4.562C146.352,66.425,145.762,65.701,144.772,65.701 M142.707,71.28
		c-0.354,0-0.679-0.281-0.679-0.754c0-0.692,0.354-1.594,0.855-2.391c0.738-1.195,1.521-1.756,2.14-1.756
		c0.487,0,0.753,0.369,0.738,0.827C145.762,68.18,144.241,71.28,142.707,71.28"/>
	<path clip-path="url(#SVGID_2_)" fill="#FFFFFF" d="M151.929,65.701c-0.827,0-2.008,1.814-2.406,2.642l-0.074-0.03
		c0.296-0.987,0.547-1.814,0.531-2.095c0-0.266-0.118-0.517-0.413-0.517c-1.003,0-1.889,1.004-2.198,1.461
		c-0.03,0.045-0.03,0.089,0,0.117l0.147,0.148c0.029,0.03,0.088,0.044,0.117,0c0.208-0.251,0.871-0.915,1.166-0.915
		c0.134,0,0.252,0.088,0.252,0.221c0,0.207-0.458,1.758-0.724,2.583l-0.826,2.392c-0.029,0.073,0.028,0.133,0.132,0.133h0.591
		c0.118,0,0.162,0,0.192-0.104l0.487-1.489c0.221-0.664,0.397-1.004,0.575-1.284c0.591-0.975,1.417-2.243,1.814-2.243
		c0.192,0,0.266,0.058,0.384,0.176c0.118,0.119,0.236,0.148,0.369,0.148c0.28,0,0.575-0.295,0.575-0.68
		C152.621,65.967,152.355,65.701,151.929,65.701"/>
	<path clip-path="url(#SVGID_2_)" fill="#FFFFFF" d="M156.633,65.701c-0.709,0-1.506,0.517-1.979,0.988
		c-1.076,1.063-1.889,2.613-1.889,3.853c0,0.975,0.413,1.445,1.373,1.445c1.137,0,2.021-0.973,2.391-1.489
		c0.059-0.044,0.059-0.089-0.016-0.134l-0.162-0.133c-0.059-0.059-0.104-0.029-0.132,0.016c-0.311,0.502-0.96,1.048-1.683,1.048
		c-0.28,0-0.768-0.267-0.768-0.931c0-0.693,0.118-1.181,0.191-1.357c0.546-0.044,1.343-0.206,2.139-0.605
		c0.827-0.428,1.374-1.194,1.374-1.919C157.474,66.13,157.208,65.701,156.633,65.701 M154.079,68.579
		c0.118-0.531,1.033-2.229,1.978-2.229c0.325,0,0.473,0.267,0.473,0.562C156.529,68.004,154.596,68.624,154.079,68.579"/>
	<path clip-path="url(#SVGID_2_)" fill="#FFFFFF" d="M163.611,65.701c-0.06,0-0.104,0.044-0.148,0.103l-0.279,0.399
		c-0.148-0.237-0.429-0.502-1.048-0.502c-1.802,0-4.221,3.188-4.221,5.342c0,0.664,0.457,0.945,0.796,0.945
		c1.048,0,2.539-1.579,3.158-2.524l0.074,0.03c-0.561,1.564-0.709,2.022-0.709,2.243c0,0.191,0.134,0.251,0.311,0.251
		c0.842,0,2.125-1.255,2.287-1.55c0.03-0.044,0.015-0.073-0.029-0.117l-0.133-0.149c-0.029-0.044-0.073-0.014-0.118,0.03
		c-0.103,0.132-0.855,0.9-1.033,0.9c-0.088,0-0.162-0.044-0.162-0.178c0-0.133,0.62-1.963,0.709-2.214
		c0.073-0.235,0.825-2.271,1.106-2.878c0.029-0.058,0.015-0.132-0.044-0.132H163.611z M162.269,68.27
		c-0.267,0.546-2.141,2.937-2.879,2.937c-0.25,0-0.397-0.177-0.397-0.517c0-1.401,1.579-4.517,2.937-4.517
		c0.546,0,0.694,0.473,0.694,0.87C162.623,67.472,162.475,67.84,162.269,68.27"/>
	<path clip-path="url(#SVGID_2_)" fill="#FFFFFF" d="M171.475,66.307c0-0.385-0.296-0.605-0.738-0.605
		c-1.314,0-2.922,1.962-3.366,2.67l-0.059-0.029c0.119-0.339,0.753-1.74,0.753-2.198c0-0.191-0.133-0.442-0.472-0.442
		c-1.063,0-2.155,1.225-2.376,1.491c-0.045,0.058-0.03,0.088,0.028,0.146l0.134,0.134c0.059,0.059,0.104,0.059,0.147,0.015
		c0.251-0.281,0.96-0.99,1.239-0.99c0.162,0,0.222,0.104,0.222,0.251c0,0.251-0.413,1.314-0.767,2.229l-1.049,2.729
		c-0.029,0.104,0,0.133,0.162,0.133h0.576c0.147,0,0.177-0.028,0.207-0.089l0.369-0.987c0.383-1.033,0.619-1.417,0.884-1.846
		c0.65-1.048,2.111-2.405,2.687-2.405c0.266,0,0.369,0.133,0.369,0.34c0,0.323-0.531,1.55-0.738,2.125
		c-0.457,1.269-0.988,2.435-0.988,2.716c0,0.221,0.162,0.295,0.354,0.295c0.989,0,2.184-1.048,2.361-1.285
		c0.06-0.073,0.044-0.103-0.015-0.162l-0.104-0.118c-0.044-0.058-0.104-0.072-0.162-0.028c-0.191,0.206-0.842,0.753-1.063,0.753
		c-0.119,0-0.178-0.104-0.178-0.193c0-0.235,0.354-1.062,0.753-2.036C171.135,67.724,171.475,66.955,171.475,66.307"/>
	<path clip-path="url(#SVGID_2_)" fill="#FFFFFF" d="M186.021,62.233c-0.059-0.029-0.103,0-0.133,0.089
		c-0.088,0.339-0.207,0.457-0.384,0.457c-0.28,0-0.546-0.28-0.738-0.413c-0.708-0.487-1.239-0.635-1.947-0.635
		c-1.27,0-2.598,0.648-3.558,1.696c-1.356,1.477-2.14,3.439-2.14,5.121c0,2.155,1.58,3.514,3.543,3.514
		c0.707,0,1.71-0.252,2.035-0.413c0.267-0.118,0.518-0.207,0.65-0.207s0.236,0.117,0.236,0.279c0,0.104-0.03,0.178-0.045,0.251
		c-0.029,0.074,0,0.104,0.045,0.118l0.266,0.074c0.059,0.015,0.104,0,0.132-0.074l1.048-3.158c0.016-0.073,0.016-0.103-0.073-0.133
		l-0.25-0.074c-0.074-0.028-0.09-0.014-0.148,0.118c-0.9,2.186-2.436,2.613-3.675,2.613c-0.855,0-2.258-0.65-2.258-2.76
		c0-1.182,0.354-3.012,1.461-4.634c0.842-1.21,1.639-1.802,2.833-1.802c1.697,0,2.45,1.684,2.141,3.129
		c-0.015,0.104,0.015,0.134,0.088,0.148l0.207,0.029c0.104,0.029,0.133,0,0.162-0.089l0.782-3.055c0.03-0.088,0-0.132-0.089-0.147
		L186.021,62.233z"/>
	<path clip-path="url(#SVGID_2_)" fill="#FFFFFF" d="M191.565,66.365c0-0.398-0.266-0.664-0.693-0.664
		c-0.828,0-2.008,1.814-2.406,2.642l-0.074-0.03c0.296-0.987,0.547-1.814,0.531-2.095c0-0.266-0.118-0.517-0.413-0.517
		c-1.003,0-1.889,1.004-2.198,1.461c-0.03,0.045-0.03,0.089,0,0.118l0.147,0.146c0.029,0.031,0.088,0.045,0.117,0
		c0.208-0.25,0.871-0.915,1.166-0.915c0.134,0,0.252,0.089,0.252,0.222c0,0.207-0.458,1.758-0.724,2.583l-0.826,2.392
		c-0.029,0.074,0.028,0.133,0.132,0.133h0.591c0.118,0,0.162,0,0.192-0.104l0.486-1.49c0.222-0.664,0.398-1.004,0.576-1.284
		c0.59-0.974,1.415-2.244,1.815-2.244c0.191,0,0.266,0.06,0.383,0.177c0.118,0.119,0.236,0.148,0.369,0.148
		C191.27,67.044,191.565,66.749,191.565,66.365"/>
	<path clip-path="url(#SVGID_2_)" fill="#FFFFFF" d="M195.222,69.493c-0.562,1.565-0.709,2.023-0.709,2.243
		c0,0.193,0.135,0.251,0.31,0.251c0.842,0,2.126-1.255,2.288-1.55c0.03-0.044,0.015-0.073-0.029-0.117l-0.133-0.147
		c-0.029-0.044-0.073-0.016-0.118,0.028c-0.104,0.134-0.855,0.9-1.033,0.9c-0.088,0-0.162-0.043-0.162-0.176
		s0.619-1.963,0.709-2.214c0.073-0.236,0.825-2.273,1.106-2.878c0.03-0.06,0.014-0.134-0.044-0.134h-0.518
		c-0.059,0-0.104,0.045-0.147,0.104l-0.28,0.397c-0.146-0.235-0.429-0.502-1.048-0.502c-1.801,0-4.221,3.189-4.221,5.344
		c0,0.664,0.457,0.943,0.797,0.943c1.048,0,2.539-1.579,3.158-2.522L195.222,69.493z M192.668,71.206
		c-0.25,0-0.398-0.178-0.398-0.518c0-1.4,1.58-4.515,2.938-4.515c0.546,0,0.693,0.471,0.693,0.87c0,0.429-0.147,0.797-0.354,1.225
		C195.28,68.814,193.406,71.206,192.668,71.206"/>
	<path clip-path="url(#SVGID_2_)" fill="#FFFFFF" d="M202.523,66.276c0.029-0.134,0-0.178-0.089-0.178h-1.432
		c0.487-1.651,1.019-3.837,2.392-3.837c0.442,0,0.59,0.281,0.604,0.43c0.046,0.323,0.177,0.59,0.649,0.59
		c0.296,0,0.591-0.223,0.591-0.68c0-0.354-0.473-0.871-1.329-0.871c-0.959,0-1.771,0.531-2.184,1.005
		c-0.782,0.869-1.283,2.096-1.727,3.363h-1.284c-0.118,0-0.147,0.044-0.178,0.149l-0.059,0.25c-0.029,0.103,0,0.146,0.074,0.146
		h1.313l-1.489,5.02c-0.797,2.729-1.594,3.969-2.303,3.969c-0.118,0-0.222-0.103-0.251-0.251c-0.044-0.251-0.266-0.664-0.693-0.664
		c-0.384,0-0.635,0.295-0.635,0.635c0,0.473,0.473,0.87,1.063,0.87c1.579,0,2.627-1.637,3.528-3.939
		c0.736-1.89,1.416-4.443,1.799-5.639h1.402c0.119,0,0.147-0.015,0.163-0.102L202.523,66.276z"/>
	<path clip-path="url(#SVGID_2_)" fill="#FFFFFF" d="M205.43,70.218c-0.044-0.046-0.09-0.061-0.134,0
		c-0.088,0.104-1.048,0.943-1.476,0.943c-0.133,0-0.191-0.089-0.191-0.251s0.162-0.531,0.339-0.943l1.432-3.321h1.506
		c0.059,0,0.118-0.03,0.132-0.074l0.134-0.309c0.044-0.119,0.015-0.163-0.06-0.163h-1.506l0.975-1.979
		c0.104-0.207,0.074-0.295-0.015-0.295c-0.06,0-0.133,0.044-0.221,0.088c-0.118,0.061-0.502,0.207-0.665,0.252
		c-0.118,0.044-0.162,0.073-0.236,0.222l-0.767,1.712h-1.063c-0.089,0-0.134,0.029-0.163,0.103l-0.118,0.326
		c-0.029,0.087,0,0.117,0.089,0.117h1.033l-1.859,4.295c-0.089,0.221-0.163,0.472-0.163,0.693c0,0.207,0.104,0.354,0.473,0.354
		c1.137,0,2.509-1.225,2.7-1.461c0.03-0.06,0.03-0.089-0.014-0.133L205.43,70.218z"/>
	<path clip-path="url(#SVGID_2_)" fill="#FFFFFF" d="M210.032,65.701c-1.048,0-1.859,0.943-1.859,1.801
		c-0.016,0.678,0.324,1.194,0.428,1.445c0.191,0.474,0.635,1.077,0.635,1.713c0,0.517-0.398,0.899-0.826,0.899
		c-0.369,0-0.443-0.162-0.531-0.413c-0.089-0.251-0.28-0.472-0.605-0.472c-0.31,0-0.502,0.28-0.502,0.487
		c0,0.486,0.531,0.825,1.387,0.825c1.019,0,1.949-0.692,1.949-1.845c0-0.782-0.473-1.505-0.562-1.682
		c-0.088-0.206-0.531-0.826-0.531-1.372c0-0.532,0.428-0.93,0.724-0.93c0.295,0,0.31,0.235,0.383,0.412
		c0.104,0.251,0.325,0.355,0.503,0.355c0.221,0,0.457-0.207,0.457-0.473C211.08,65.878,210.476,65.701,210.032,65.701"/>
</g>
</svg>
